<?xml version="1.0" encoding="utf-8"?>
<!-- Generator: Adobe Illustrator 24.0.1, SVG Export Plug-In . SVG Version: 6.00 Build 0)  -->
<svg version="1.1" id="Layer_1" xmlns="http://www.w3.org/2000/svg" xmlns:xlink="http://www.w3.org/1999/xlink" x="0px" y="0px"
	 viewBox="0 0 360 360" style="enable-background:new 0 0 360 360;" xml:space="preserve">
<style type="text/css">
	.st0{fill:#ffffff;}
</style>
<g>
	<g>
		<path class="st0" d="M272.49,263.73H122.82c-21.29,0-38.24-6.57-50.38-19.51c-22.02-23.48-20.38-59.41-20.22-62.13v-74.72h6.66
			l-0.01,75.03c-0.02,0.35-1.99,35.53,18.45,57.3c10.83,11.53,26.14,17.38,45.49,17.38h149.67c0.18,0,18.1-0.14,35.68-9.3
			c23.22-12.1,34.99-33.59,34.99-63.89v-76.52h6.66v76.52c0,41.2-21.1,60.76-38.8,69.91C292.02,263.62,273.28,263.73,272.49,263.73z
			"/>
		<path class="st0" d="M124.77,302.43c-8.67,0-53.64-1.53-84.88-31.85c-19.71-19.13-29.71-45.75-29.71-79.13V63.68H89.1
			c3.01-0.16,46.81-1.88,79.51,29.91c16.61,16.16,27.22,37.95,31.73,65.08c5.65-24.05,16.88-43.91,33.59-59.33
			c44.14-40.72,110.03-35.92,112.83-35.7l-0.53,6.64c-0.66-0.05-65.86-4.76-107.81,33.99c-22.35,20.64-34.3,49.93-35.58,87.15
			c-0.01,2.26-0.04,4.55-0.12,6.87l-6.66-0.1c0-2.33,0.04-4.63,0.12-6.9c0.09-40.75-10.71-71.97-32.15-92.86
			c-31.01-30.21-74.21-28.11-74.64-28.09l-0.19,0.01H16.84v121.12c0,31.48,9.3,56.48,27.65,74.31c31.94,31.04,81.1,30.01,81.6,29.99
			l71.57,0v-75.71h6.66v82.37h-78.13C126.02,302.42,125.54,302.43,124.77,302.43z"/>
		<circle class="st0" cx="200.98" cy="81.48" r="10.42"/>
	</g>
</g>
</svg>
